<svg xmlns="http://www.w3.org/2000/svg" viewBox="0 0 337.52 302.74"><defs><style>.cls-1,.cls-2,.cls-4,.cls-5{fill:#fff;}.cls-1,.cls-2,.cls-3{stroke:#000;}.cls-1,.cls-2,.cls-3,.cls-4,.cls-5{stroke-linecap:round;stroke-miterlimit:10;stroke-width:5px;}.cls-1,.cls-4,.cls-5{fill-rule:evenodd;}.cls-3{fill:none;}.cls-4{stroke:#fff;}.cls-5{stroke:#231f20;}</style></defs><title>fodmapdb</title><g id="Layer_1" data-name="Layer 1"><path class="cls-1" d="M391.82,335.27c0,24.07-60.55,44.71-133.69,43.43-73.82-1.29-133.69-19.45-133.69-43.43" transform="translate(-121.93 -79.9)"/><path class="cls-1" d="M391.82,178.15c0,24.07-60.55,44.71-133.69,43.43-73.82-1.29-133.69-19.45-133.69-43.43" transform="translate(-121.93 -79.9)"/><path class="cls-1" d="M391.82,231.58c0,24.07-60.55,44.71-133.69,43.43-73.82-1.29-133.69-19.45-133.69-43.43" transform="translate(-121.93 -79.9)"/><path class="cls-1" d="M391.81,283.42c0,24.07-60.55,44.71-133.69,43.43-73.82-1.29-133.69-19.45-133.69-43.43" transform="translate(-121.93 -79.9)"/><ellipse class="cls-2" cx="136.19" cy="45.93" rx="133.69" ry="43.43"/><line class="cls-3" x1="2.5" y1="45.93" x2="2.5" y2="255.35"/><line class="cls-3" x1="269.88" y1="45.93" x2="269.88" y2="255.35"/></g><g id="Layer_2" data-name="Layer 2"><path class="cls-4" d="M457,285.17s0,95-104,95-100-96.73-100-96.73,42.52,1.75,100,1.75Z" transform="translate(-121.93 -79.9)"/><path class="cls-5" d="M442.91,292.94s0,76.5-90,76.5-90-76.5-90-76.5h180Z" transform="translate(-121.93 -79.9)"/><path class="cls-5" d="M432.67,292.94s0,65.73-79.38,65.73-79.38-65.73-79.38-65.73H432.67Z" transform="translate(-121.93 -79.9)"/><line class="cls-3" x1="230.98" y1="213.04" x2="231.36" y2="278.77"/><line class="cls-3" x1="230.98" y1="213.04" x2="177.8" y2="263.54"/><line class="cls-3" x1="230.98" y1="213.04" x2="289.74" y2="259.51"/></g></svg>
